<svg xmlns="http://www.w3.org/2000/svg" xmlns:xlink="http://www.w3.org/1999/xlink" width="2000" zoomAndPan="magnify" viewBox="0 0 1500 1499.999933" height="2000" preserveAspectRatio="xMidYMid meet" version="1.0"><defs><clipPath id="4551fad1c9"><path d="M 266.417969 236 L 1233.917969 236 L 1233.917969 811 L 266.417969 811 Z M 266.417969 236 " clip-rule="nonzero"/></clipPath><clipPath id="07a7d85837"><path d="M 473.585938 509 L 1242.335938 509 L 1242.335938 966 L 473.585938 966 Z M 473.585938 509 " clip-rule="nonzero"/></clipPath><clipPath id="54b60f92a7"><path d="M 321 803 L 1141 803 L 1141 1184 L 321 1184 Z M 321 803 " clip-rule="nonzero"/></clipPath><clipPath id="095ed69766"><path d="M 369.089844 723.570312 L 1142.679688 803.910156 L 1094.878906 1264.183594 L 321.289062 1183.84375 Z M 369.089844 723.570312 " clip-rule="nonzero"/></clipPath><clipPath id="4ec0bd25f3"><path d="M 369.089844 723.570312 L 1142.679688 803.910156 L 1094.878906 1264.183594 L 321.289062 1183.84375 Z M 369.089844 723.570312 " clip-rule="nonzero"/></clipPath><clipPath id="15619807ed"><path d="M 390 811.265625 L 574.265625 811.265625 L 574.265625 978.433594 L 390 978.433594 Z M 390 811.265625 " clip-rule="nonzero"/></clipPath><clipPath id="ee57190181"><path d="M 571.554688 846.589844 C 565.738281 826.835938 546.960938 811.265625 524.757812 811.265625 C 506.117188 811.265625 489.921875 821.785156 481.734375 837.230469 C 473.546875 821.785156 457.355469 811.265625 438.714844 811.265625 C 415.488281 811.265625 395.175781 826.835938 391.1875 849.4375 C 381.074219 906.75 445.175781 951.609375 481.878906 978.433594 C 515.816406 953.632812 588.1875 903.0625 571.554688 846.589844 Z M 571.554688 846.589844 " clip-rule="nonzero"/></clipPath><clipPath id="33d357cff7"><path d="M 0 0.265625 L 184.265625 0.265625 L 184.265625 167.433594 L 0 167.433594 Z M 0 0.265625 " clip-rule="nonzero"/></clipPath><clipPath id="ae2aa16313"><path d="M 181.554688 35.589844 C 175.738281 15.835938 156.960938 0.265625 134.757812 0.265625 C 116.117188 0.265625 99.921875 10.785156 91.734375 26.230469 C 83.546875 10.785156 67.355469 0.265625 48.714844 0.265625 C 25.488281 0.265625 5.175781 15.835938 1.1875 38.4375 C -8.925781 95.75 55.175781 140.609375 91.878906 167.433594 C 125.816406 142.632812 198.1875 92.0625 181.554688 35.589844 Z M 181.554688 35.589844 " clip-rule="nonzero"/></clipPath><clipPath id="838060d5c7"><rect x="0" width="185" y="0" height="168"/></clipPath><clipPath id="4464df5b61"><path d="M 354.246094 689.542969 L 611.496094 689.542969 L 611.496094 805 L 354.246094 805 Z M 354.246094 689.542969 " clip-rule="nonzero"/></clipPath><clipPath id="3c8d59f185"><path d="M 354.246094 689.542969 L 611.496094 689.542969 L 611.496094 798 L 354.246094 798 Z M 354.246094 689.542969 " clip-rule="nonzero"/></clipPath><clipPath id="64c9974604"><path d="M 381 719 L 407 719 L 407 837.292969 L 381 837.292969 Z M 381 719 " clip-rule="nonzero"/></clipPath><clipPath id="00a29a5159"><path d="M 482.714844 811.265625 L 574.003906 811.265625 L 574.003906 902.554688 L 482.714844 902.554688 Z M 482.714844 811.265625 " clip-rule="nonzero"/></clipPath><clipPath id="299cbeda1f"><path d="M 528.359375 811.265625 L 542.882812 842.386719 L 574.003906 856.910156 L 542.882812 871.433594 L 528.359375 902.554688 L 513.832031 871.433594 L 482.714844 856.910156 L 513.832031 842.386719 Z M 528.359375 811.265625 " clip-rule="nonzero"/></clipPath><clipPath id="6c3d5e6786"><path d="M 0.714844 0.265625 L 92.003906 0.265625 L 92.003906 91.554688 L 0.714844 91.554688 Z M 0.714844 0.265625 " clip-rule="nonzero"/></clipPath><clipPath id="3d48dad054"><path d="M 46.359375 0.265625 L 60.882812 31.386719 L 92.003906 45.910156 L 60.882812 60.433594 L 46.359375 91.554688 L 31.832031 60.433594 L 0.714844 45.910156 L 31.832031 31.386719 Z M 46.359375 0.265625 " clip-rule="nonzero"/></clipPath><clipPath id="70c90407e0"><rect x="0" width="93" y="0" height="92"/></clipPath></defs><rect x="-150" width="1800" fill="#ffffff" y="-149.999993" height="1799.99992" fill-opacity="1"/><rect x="-150" width="1800" fill="#ffde00" y="-149.999993" height="1799.99992" fill-opacity="1"/><g clip-path="url(#4551fad1c9)"><path fill="#002a86" d="M 266.417969 810.71875 C 266.417969 810.71875 283.957031 586.347656 735.519531 494.957031 C 1187.074219 403.554688 1228.46875 236.417969 1228.46875 236.417969 C 1228.46875 236.417969 1293.40625 419.960938 960.09375 556.359375 C 626.785156 692.757812 398.613281 582.46875 266.417969 810.71875 " fill-opacity="1" fill-rule="nonzero"/></g><g clip-path="url(#07a7d85837)"><path fill="#002a86" d="M 473.585938 965.4375 C 473.585938 965.4375 487.523438 787.121094 846.394531 714.492188 C 1205.261719 641.851562 1238.15625 509.023438 1238.15625 509.023438 C 1238.15625 509.023438 1289.765625 654.886719 1024.871094 763.289062 C 759.980469 871.691406 578.644531 784.039062 473.585938 965.4375 " fill-opacity="1" fill-rule="nonzero"/></g><g clip-path="url(#54b60f92a7)"><g clip-path="url(#095ed69766)"><g clip-path="url(#4ec0bd25f3)"><path fill="#002a86" d="M 321.339844 1183.34375 C 321.339844 1183.34375 354.007812 1005.339844 722.773438 969.753906 C 1091.535156 934.15625 1138.523438 803.914062 1138.523438 803.914062 C 1138.523438 803.914062 1175.21875 956.109375 897.296875 1037.519531 C 619.371094 1118.929688 446.035156 1011.761719 321.339844 1183.34375 " fill-opacity="1" fill-rule="nonzero"/></g></g></g><g clip-path="url(#15619807ed)"><g clip-path="url(#ee57190181)"><g transform="matrix(1, 0, 0, 1, 390, 811)"><g clip-path="url(#838060d5c7)"><g clip-path="url(#33d357cff7)"><g clip-path="url(#ae2aa16313)"><path fill="#ba1f53" d="M 0.117188 0.265625 L 184.265625 0.265625 L 184.265625 167.433594 L 0.117188 167.433594 Z M 0.117188 0.265625 " fill-opacity="1" fill-rule="nonzero"/></g></g></g></g></g></g><g clip-path="url(#4464df5b61)"><path fill="#1e183a" d="M 611.203125 748.074219 L 611.003906 754.773438 L 552.863281 775.265625 L 552.324219 793.25 C 552.101562 800.648438 520.191406 805.695312 481.054688 804.527344 C 441.910156 803.355469 410.363281 796.410156 410.585938 789.011719 L 411.121094 771.09375 L 398.527344 765.722656 L 354.3125 747.097656 L 354.511719 740.398438 L 415.800781 716.441406 L 446.789062 704.324219 L 450.957031 702.695312 L 454.8125 701.1875 L 458.453125 699.765625 L 460.894531 698.808594 L 484.492188 689.582031 Z M 611.203125 748.074219 " fill-opacity="1" fill-rule="nonzero"/></g><g clip-path="url(#3c8d59f185)"><path fill="#231d49" d="M 414.945312 793.605469 C 413.472656 792.5625 412.714844 791.527344 412.742188 790.53125 C 412.917969 784.582031 441.328125 778.8125 481.820312 780.046875 C 522.3125 781.28125 550.332031 788.773438 550.160156 794.722656 C 550.132812 795.675781 549.375 796.625 547.957031 797.542969 C 540.621094 792.339844 515.546875 786.972656 481.820312 785.941406 C 447.828125 784.90625 422.351562 788.804688 414.945312 793.605469 Z M 483.082031 737.804688 C 443.9375 736.632812 412.035156 741.683594 411.8125 749.078125 L 410.617188 789.011719 C 410.839844 781.609375 442.742188 776.558594 481.886719 777.730469 C 494.425781 778.105469 506.183594 779.074219 516.359375 780.457031 C 537.976562 783.394531 552.507812 788.214844 552.359375 793.25 L 553.550781 753.316406 C 553.773438 745.921875 522.21875 738.972656 483.082031 737.804688 Z M 484.492188 689.582031 L 460.894531 698.808594 L 458.453125 699.765625 L 454.8125 701.1875 L 450.957031 702.695312 L 446.789062 704.324219 L 415.800781 716.441406 L 354.511719 740.398438 L 354.3125 747.097656 L 417.972656 721.183594 L 446.140625 709.722656 L 449.59375 708.320312 L 484.355469 694.164062 L 611.003906 754.773438 L 611.203125 748.074219 Z M 484.492188 689.582031 " fill-opacity="1" fill-rule="nonzero"/></g><g clip-path="url(#64c9974604)"><path fill="#ffde00" d="M 395.328125 729.921875 C 395.140625 731.808594 395.03125 734.269531 395.050781 737.457031 C 395.050781 738.089844 395.050781 738.59375 395.042969 738.898438 C 394.988281 740.675781 394.515625 774.34375 394.347656 786.539062 C 397.097656 787.464844 399.074219 790.984375 398.953125 795.125 C 398.875 797.683594 398.011719 799.953125 396.707031 801.5 C 400.140625 807.082031 402.304688 818.746094 402.066406 826.75 C 401.742188 837.558594 397.160156 837.597656 391.511719 837.429688 C 385.863281 837.261719 381.292969 836.945312 381.613281 826.140625 C 381.855469 818.132812 384.710938 806.617188 388.472656 801.253906 C 387.257812 799.632812 386.535156 797.3125 386.609375 794.757812 C 386.726562 790.953125 388.578125 787.78125 391.050781 786.699219 C 391.21875 774.617188 391.695312 740.636719 391.75 738.800781 C 391.761719 738.519531 391.757812 738.058594 391.757812 737.480469 C 391.746094 735.363281 391.769531 733.28125 391.875 731.324219 C 391.984375 729.351562 392.179688 727.515625 392.523438 725.925781 C 393.058594 723.398438 393.957031 721.488281 395.421875 720.652344 C 399.328125 718.414062 405.5625 719.425781 406.628906 720.410156 L 404.1875 721.367188 L 400.546875 722.789062 C 399.472656 722.867188 398.296875 723.117188 397.257812 723.714844 C 397.089844 723.808594 396.898438 723.980469 396.691406 724.296875 C 396.199219 725.046875 395.648438 726.628906 395.328125 729.921875 Z M 395.328125 729.921875 " fill-opacity="1" fill-rule="nonzero"/></g><g clip-path="url(#00a29a5159)"><g clip-path="url(#299cbeda1f)"><g transform="matrix(1, 0, 0, 1, 482, 811)"><g clip-path="url(#70c90407e0)"><g clip-path="url(#6c3d5e6786)"><g clip-path="url(#3d48dad054)"><path fill="#fffeff" d="M 0.714844 0.265625 L 92.003906 0.265625 L 92.003906 91.554688 L 0.714844 91.554688 Z M 0.714844 0.265625 " fill-opacity="1" fill-rule="nonzero"/></g></g></g></g></g></g></svg>